PathFileType	4	(X/Y/Z)	46_2_71_p1_0-460.trc
DataRate	CameraRate	NumFrames	NumMarkers	Units	OrigDataRate	OrigDataStartFrame	OrigNumFrames
59.0	59.0	7	27	m	59.0	57	461
Frame#	Time	RHip			RKnee			RAnkle			RBigToe			RSmallToe			RHeel			LHip			LKnee			LAnkle			LBigToe			LSmallToe			LHeel			Neck			Head			Nose			RShoulder			RElbow			RWrist			RThumb			RIndex			RPinky			LShoulder			LElbow			LWrist			LThumb			LIndex			LPinky			
		X1	Y1	Z1	X2	Y2	Z2	X3	Y3	Z3	X4	Y4	Z4	X5	Y5	Z5	X6	Y6	Z6	X7	Y7	Z7	X8	Y8	Z8	X9	Y9	Z9	X10	Y10	Z10	X11	Y11	Z11	X12	Y12	Z12	X13	Y13	Z13	X14	Y14	Z14	X15	Y15	Z15	X16	Y16	Z16	X17	Y17	Z17	X18	Y18	Z18	X19	Y19	Z19	X20	Y20	Z20	X21	Y21	Z21	X22	Y22	Z22	X23	Y23	Z23	X24	Y24	Z24	X25	Y25	Z25	X26	Y26	Z26	X27	Y27	Z27	
57	0.9661016949152542	0.39127670960917876	0.3881967028194586	0.6449504082329944	0.3856812042626347	0.4883170525843093	1.121274684038489	0.37665804389678215	0.5155890916773038	1.5282625537999184	0.3563786267843239	0.36466382411576925	1.5301423352597885	0.4091663159085767	0.35426883041386953	1.5145301423291468	0.3485140104052811	0.5927383041019135	1.5964095855806841	0.17741367988586082	0.3867873236112062	0.6579471600928641	0.15597709149374234	0.4683070379534774	1.1300393567111822	0.1553638227606757	0.489216320834757	1.535773783285096	0.19612934073020827	0.3110243744672698	1.5087042871811998	0.15364216013902002	0.31643100740005126	1.503388441779502	0.16466963848987315	0.5200071815332082	1.576400846786099	0.28865675920430495	0.39095158481047587	0.1479483512290331	0.29479859899474625	0.3558052437105244	-0.10613024208927122	0.29959817239913356	0.3073453301481939	0.027680940335676127	0.4251632089498089	0.39459239669299717	0.22781248412396207	0.48653735027502043	0.32620849706472443	0.4637513673641299	0.3426061515941016	0.2743387773537651	0.6526771627314812	0.2883531514841064	0.23853148831511878	0.7482175324206488	0.28351472904723435	0.25401576342966	0.7586015845990108	0.2825447244133719	0.2688700357698632	0.7561374314887584	0.13252296285483067	0.34845207646633325	0.21268557586619158	0.10961086720562854	0.31717321218969996	0.45940781655596924	0.21029884191484188	0.24021490513997157	0.6573510806160204	0.3165466079514654	0.23319010837978346	0.7133490082143848	0.32025137831375844	0.23411029274722753	0.7458682923712577	0.2754705025702139	0.2511570410505884	0.766591333974073
58	0.9830508474576272	0.39516664086224923	0.38989447635715224	0.6451687958295657	0.38565952987073165	0.48814150296703174	1.1212254146605263	0.37660380208752836	0.5154544389052486	1.5282018316695811	0.3558971422149103	0.3662773189471995	1.5261943785952499	0.4078707281796357	0.3539810418991768	1.5057032422048726	0.34844785567653846	0.5927047487723787	1.5963447660637462	0.17060217683954937	0.3998630984588392	0.6652326761490575	0.15501877614936374	0.46834526471136967	1.134285559883773	0.15536466041238975	0.4892660290866142	1.5358586330963657	0.19609867414525517	0.310910727858278	1.5086041115807087	0.15366063066077615	0.31632702474266444	1.503366764226316	0.15768605863816054	0.53523380049413	1.5854020405393574	0.2888296500536201	0.3904424291320898	0.15148934827077115	0.29478327683314653	0.3557958071444528	-0.10614809611161338	0.2975678378093811	0.29698515171427603	0.023479943124664837	0.42540056623182226	0.3939566741588514	0.23106125989903561	0.4860852377860749	0.3250471620634907	0.4595727816946018	0.3426338384470404	0.2744594683690057	0.6527048067085987	0.2883781373049719	0.23824164093958905	0.7480955799603503	0.28347409870145823	0.25394587625756676	0.7586001383304097	0.282542685692176	0.2689990622603155	0.756173848195075	0.13251725095626246	0.34844416102736236	0.21259867116858522	0.10956497638534106	0.31710039023361347	0.4592983432269475	0.21029137715234303	0.24037699262639314	0.657364455321761	0.31480492246259684	0.22418451102197615	0.7143099996846611	0.32022541532519677	0.23436801644763788	0.7460260264430021	0.2754530908372094	0.2509551611227453	0.7665154500866024
59	1.0	0.38978189555391846	0.4036773680424266	0.6492408282968238	0.3856599137010013	0.4882308012812771	1.1213118968005549	0.37661634104885033	0.5158219542348721	1.528248420284629	0.3563627259575417	0.36455894889213025	1.5300767581463488	0.4083267841504267	0.35251223723739095	1.5094399909778276	0.3484714817947685	0.5934693572430983	1.5961346094779614	0.17051394944748177	0.4000819431733044	0.66540534463576	0.15501621890484446	0.4685085018643342	1.1344339239431371	0.15535288403069766	0.48934156847081667	1.535966405385315	0.19484852740484634	0.29746407453409585	1.5011056013685369	0.15362823768309733	0.3164350876277501	1.5033665152570095	0.15767154080859325	0.5352573526966001	1.585475462232141	0.28315875022817855	0.4036232269505114	0.14936751421274033	0.29477641993233805	0.3558059159883654	-0.10615071866700246	0.29761702704678056	0.29699145931880555	0.02343645049942703	0.425123847885217	0.39452907742760546	0.22784044581443527	0.4864406561343275	0.3262238002843628	0.46365541126539367	0.3425917429195966	0.274398829206202	0.6527087891150707	0.28863070618578324	0.2379355965378995	0.7479311130052017	0.2834844499784057	0.253923806099177	0.7585953195654775	0.2825077456565023	0.2689865822245054	0.7562079503021677	0.13252404232065956	0.34845694174487096	0.21258829667407936	0.10923692012072071	0.3178574454048352	0.4558523296934346	0.20981208048205513	0.24101885177708607	0.6540723164506244	0.3163832347708184	0.23339583787925164	0.7131953129207631	0.32005663804953904	0.23414830071415438	0.7458546281757634	0.2754924702058387	0.25113361820043073	0.7664989886019775
60	1.0169491525423728	0.3897256357776174	0.4038125777697915	0.6494844355164174	0.3856402286339008	0.4883177190624072	1.1213539080354005	0.37656992059450006	0.5158495213308227	1.5286365270294924	0.3564404870950344	0.3644184447813056	1.5299582275669208	0.4090561046005502	0.35415355034810847	1.51442243844264	0.34263409562840885	0.611695829219839	1.6127809786245015	0.1706068505332062	0.40070659320030405	0.6660693533666623	0.15501916961814544	0.4686806785528093	1.1344828155830116	0.15539961228722945	0.48968293361917525	1.536257621215442	0.19489768923118617	0.29801841228933024	1.501592975089109	0.1540205826470047	0.3186138078573249	1.5095893668483296	0.16147401191916375	0.538713878353107	1.5870501422778094	0.2885344354148344	0.39078527353168	0.14796924013012577	0.2946952006821888	0.3559832344506569	-0.10620292226556609	0.29755126468558607	0.2965973296364478	0.023381702709502346	0.4214348127174122	0.3927684088868257	0.2277022471459716	0.48632978309987845	0.32609843138690836	0.46358030359850466	0.3482822766019837	0.26208390302858336	0.645479189877545	0.2984840823383343	0.22557402031782398	0.7431704896068553	0.2836730032745565	0.2534266410695796	0.7583370878156317	0.28277361977979804	0.269706990659341	0.7500187831524856	0.13250832566727702	0.34821727348881526	0.21263161618264606	0.10994486172405683	0.3185954852102508	0.4638989040116901	0.21591717381624828	0.2289423444082543	0.6538557349323063	0.31844969191637695	0.22518382893309374	0.7147551070121286	0.32035192571889565	0.2327504286917265	0.7490280442984375	0.2751715614165531	0.24989559630893346	0.7628968260839001
61	1.0338983050847457	0.38532600786294735	0.4020263248044084	0.6530199851639221	0.3848143672042694	0.48845323883283304	1.125767055055956	0.37661627228495925	0.5156232770688951	1.5285453286968338	0.3519942657757615	0.36146070118711593	1.5287601741976178	0.4090691372246628	0.3539136846500575	1.5142786317066947	0.3493150095139575	0.5945816132911828	1.6032220013037595	0.17051657484736238	0.4005818363815466	0.665915382562419	0.15501476614866255	0.4685356091496851	1.1344348834939193	0.15542158668434275	0.48958064205876245	1.5361794470769308	0.19464845654719692	0.29785480932535896	1.5013195469378025	0.15397287371595222	0.3185674165294453	1.5095760882356946	0.16154659292760057	0.5384964676734105	1.5869000126728308	0.28852956292364024	0.39073541849699456	0.14795935111018257	0.29466712953779406	0.355955981781186	-0.10621287313231972	0.2955204689870177	0.28575833660593425	0.02267585104619718	0.4250433161691616	0.3944984169359547	0.227827899570547	0.4858866597803941	0.32486934524846817	0.4594496635436517	0.3426857736081344	0.2743123857167918	0.652642060999966	0.2945177183565378	0.22667797677497323	0.7439673081092529	0.2836711353122082	0.25372623591650234	0.7585541766354666	0.28247205881839044	0.26880987649966753	0.7560340756056714	0.132480525932025	0.3481736065221145	0.212630156904084	0.10988724320870585	0.3183491245550265	0.4636852185146991	0.21597317788993772	0.22891745084980478	0.6538216995783563	0.3148273911067813	0.2229790123705336	0.7142280533681145	0.320305379137237	0.23263465570022382	0.748991711628704	0.27550205807573686	0.2510467673913653	0.7665530788193026
62	1.0508474576271187	0.3858143191692277	0.4034872798213144	0.6576065719007491	0.3856145559654071	0.4882725417663942	1.1213870096026448	0.37659584958082526	0.5156138742380263	1.528598194023411	0.3519916485858105	0.3616114402718523	1.528960868356367	0.4090196862454896	0.3540155995063404	1.5144253223433526	0.34271380258359857	0.6111016170461164	1.6129650146271388	0.17000180649062197	0.40084931850759936	0.6697446949191598	0.15508763754935556	0.4686850868246313	1.134499508745921	0.15549797118707664	0.48952183970361246	1.536116797304649	0.19495236776837022	0.2973809341412049	1.5012113560018059	0.15520841004058145	0.3176568071136692	1.5057927869623513	0.16156792747489424	0.5385820353624364	1.5868634605707077	0.28306851837694186	0.4032978048789084	0.14942428076845649	0.2946790363766234	0.3559007924486442	-0.10623839737628776	0.29551116771425023	0.28587214692427654	0.022764130587045538	0.42503277818193774	0.3945606390811576	0.22780102332286817	0.4858407582866266	0.32484091143903704	0.45937719212252576	0.342708049635962	0.2741170684735913	0.652660537112287	0.2946931242842498	0.22641792413717815	0.7438659898687519	0.2836922433247314	0.25369991668469094	0.7585687720586951	0.282466122256876	0.2687673043607267	0.7560602576336469	0.13247654763393557	0.34812810200806843	0.21261182954008928	0.10397369884564997	0.32979633847884043	0.4663935453939368	0.215959847043246	0.2288375037784876	0.6538061107537249	0.31847285627975663	0.2248287938824309	0.7146226625046409	0.320406518893183	0.2324737661108605	0.7489014291919284	0.2754910687644778	0.25094937594994565	0.7665884926061785
63	1.0677966101694916	0.38581166375000014	0.4036614353186633	0.657704995836396	0.3856433041561818	0.48829800301874243	1.1213421472526086	0.3766648521885935	0.5155692197942108	1.528679491774792	0.3564704472896979	0.36432832928380526	1.53019670050252	0.4091488386682356	0.35393292459310716	1.5144611206731817	0.3493518180740762	0.5943828658512639	1.6034386391745898	0.17086889764728017	0.40236179860629784	0.6714670652852416	0.15502766815742053	0.4686838245190145	1.134556907087162	0.15733943841837203	0.5037120636735981	1.5436366997576028	0.19498537694963047	0.2972363689736262	1.5011172066519072	0.154151391414988	0.318156334303573	1.5095602674315958	0.16164251097636748	0.5385132313937103	1.5869367841321136	0.28324306685026324	0.4027399412632772	0.15292772676878547	0.2946871775163631	0.3558629044461325	-0.10625948542187352	0.29757973974844737	0.2966068735816691	0.023372873375682543	0.4250199394785153	0.3945487277740952	0.22775773840339356	0.48207871619551423	0.3242382610511198	0.45594408297263145	0.34268722613964653	0.2740734723136615	0.6525769406055668	0.29469505208490204	0.22677016509585554	0.7440445383609068	0.28373650466987105	0.25373302963052446	0.7586117860874613	0.28250805123194495	0.2686953090175529	0.7560447138736497	0.13246335774723422	0.3480007912295923	0.21261755436428534	0.10401491639921027	0.329890903024677	0.46646934304798326	0.21603886290945493	0.22881212749785274	0.6538731798442455	0.3150243564066745	0.22301960379180732	0.7142918269511456	0.3256479000864419	0.22083533816384515	0.7447526467642247	0.27515183252080977	0.24969359743771305	0.7629065114705411
